# xmcd CD database file
#
# Track frame offsets:
#	150
#	55765
#	87166
#	116784
#	137576
#
# Disc length: 2341 seconds
#
# Revision: 0
# Processed by: cddbd v1.4PL0 Copyright (c) Steve Scherf et al.
# Submitted via: Feurio! 1.63 - http://www.feurio.com
#
DISCID=3c092305
DTITLE=Albert Collins - Meervart, Amsterdam 3/19/83
DYEAR=1900
DGENRE=Blues
TTITLE0=Cold, Cold Feeling
TTITLE1=You Talk Too Much
TTITLE2=The Things That I Used To Do
TTITLE3=I Know The Rules
TTITLE4=Got That Feeling
EXTD=
EXTT0=
EXTT1=
EXTT2=
EXTT3=
EXTT4=
PLAYORDER=
